M48
; DRILL file KiCad 10.0.1 date 2026-05-10T00:29:23
; FORMAT={-:-/ absolute / metric / decimal}
; #@! TF.CreationDate,2026-05-10T00:29:23-07:00
; #@! TF.GenerationSoftware,Kicad,Pcbnew,10.0.1
; #@! TF.FileFunction,MixedPlating,1,2
FMAT,2
METRIC
; #@! TA.AperFunction,Plated,PTH,ComponentDrill
T1C0.200
; #@! TA.AperFunction,Plated,PTH,ViaDrill
T2C0.300
; #@! TA.AperFunction,Plated,PTH,ComponentDrill
T3C0.900
; #@! TA.AperFunction,Plated,PTH,ComponentDrill
T4C1.000
; #@! TA.AperFunction,Plated,PTH,ComponentDrill
T5C1.100
; #@! TA.AperFunction,Plated,PTH,ComponentDrill
T6C1.300
; #@! TA.AperFunction,Plated,PTH,ComponentDrill
T7C1.800
; #@! TA.AperFunction,NonPlated,NPTH,ComponentDrill
T8C2.500
; #@! TA.AperFunction,NonPlated,NPTH,ComponentDrill
T9C3.200
%
G90
G05
T1
X80.9Y-68.9
X80.9Y-70.0
X80.9Y-71.1
X80.9Y-98.9
X80.9Y-100.0
X80.9Y-101.1
X80.9Y-128.9
X80.9Y-130.0
X80.9Y-131.1
X82.0Y-68.9
X82.0Y-70.0
X82.0Y-71.1
X82.0Y-98.9
X82.0Y-100.0
X82.0Y-101.1
X82.0Y-128.9
X82.0Y-130.0
X82.0Y-131.1
X83.1Y-68.9
X83.1Y-70.0
X83.1Y-71.1
X83.1Y-98.9
X83.1Y-100.0
X83.1Y-101.1
X83.1Y-128.9
X83.1Y-130.0
X83.1Y-131.1
T2
X27.087Y-52.0
X50.932Y-25.697
X65.166Y-138.144
X70.158Y-139.677
X72.472Y-29.087
X75.492Y-37.035
X79.226Y-39.75
X83.703Y-40.263
X84.47Y-124.855
X85.488Y-130.077
X86.01Y-70.478
X86.083Y-99.944
X86.231Y-38.258
X87.735Y-131.044
X88.503Y-73.055
X89.115Y-102.915
X96.751Y-123.704
X97.065Y-142.443
X98.0Y-117.023
X108.256Y-37.788
X109.139Y-99.14
X117.993Y-142.443
X141.787Y-150.691
X169.61Y-150.0
T3
X174.0Y-103.0
X177.0Y-103.0
T4
X36.0Y-8.76
X36.0Y-24.0
X38.54Y-8.76
X38.54Y-24.0
X41.08Y-8.76
X41.08Y-24.0
X43.62Y-8.76
X43.62Y-24.0
X46.16Y-8.76
X46.16Y-24.0
X48.7Y-8.76
X48.7Y-24.0
X51.24Y-8.76
X51.24Y-24.0
X53.78Y-8.76
X53.78Y-24.0
X56.32Y-8.76
X56.32Y-24.0
X58.86Y-8.76
X58.86Y-24.0
X61.4Y-8.76
X61.4Y-24.0
X63.94Y-8.76
X63.94Y-24.0
X66.48Y-8.76
X66.48Y-24.0
X69.02Y-8.76
X69.02Y-24.0
X71.56Y-8.76
X71.56Y-24.0
X103.11Y-31.11
X103.11Y-61.11
X103.11Y-91.11
X103.11Y-121.11
X105.65Y-31.11
X105.65Y-61.11
X105.65Y-91.11
X105.65Y-121.11
X108.19Y-31.11
X108.19Y-61.11
X108.19Y-91.11
X108.19Y-121.11
X110.73Y-31.11
X110.73Y-61.11
X110.73Y-91.11
X110.73Y-121.11
X113.27Y-31.11
X113.27Y-61.11
X113.27Y-91.11
X113.27Y-121.11
X115.81Y-31.11
X115.81Y-61.11
X115.81Y-91.11
X115.81Y-121.11
X118.35Y-31.11
X118.35Y-61.11
X118.35Y-91.11
X118.35Y-121.11
X120.89Y-31.11
X120.89Y-61.11
X120.89Y-91.11
X120.89Y-121.11
X155.46Y-18.0
X155.46Y-20.54
X155.46Y-23.08
X155.46Y-25.62
X155.46Y-28.16
X155.46Y-30.7
X155.46Y-33.24
X155.46Y-35.78
X155.46Y-38.32
X155.46Y-40.86
X155.46Y-43.4
X155.46Y-45.94
X155.46Y-48.48
X155.46Y-51.02
X155.46Y-53.56
X155.46Y-56.1
X155.46Y-58.64
X155.46Y-61.18
X155.46Y-63.72
X155.46Y-66.26
X155.46Y-68.8
X155.46Y-71.34
X155.46Y-73.88
X155.46Y-76.42
X155.46Y-78.96
X155.46Y-81.5
X158.0Y-18.0
X158.0Y-20.54
X158.0Y-23.08
X158.0Y-25.62
X158.0Y-28.16
X158.0Y-30.7
X158.0Y-33.24
X158.0Y-35.78
X158.0Y-38.32
X158.0Y-40.86
X158.0Y-43.4
X158.0Y-45.94
X158.0Y-48.48
X158.0Y-51.02
X158.0Y-53.56
X158.0Y-56.1
X158.0Y-58.64
X158.0Y-61.18
X158.0Y-63.72
X158.0Y-66.26
X158.0Y-68.8
X158.0Y-71.34
X158.0Y-73.88
X158.0Y-76.42
X158.0Y-78.96
X158.0Y-81.5
X173.46Y-18.0
X173.46Y-20.54
X173.46Y-23.08
X173.46Y-25.62
X173.46Y-28.16
X173.46Y-30.7
X173.46Y-33.24
X173.46Y-35.78
X173.46Y-38.32
X173.46Y-40.86
X173.46Y-43.4
X173.46Y-45.94
X173.46Y-48.48
X173.46Y-51.02
X173.46Y-53.56
X173.46Y-56.1
X173.46Y-58.64
X173.46Y-61.18
X173.46Y-63.72
X173.46Y-66.26
X173.46Y-68.8
X173.46Y-71.34
X173.46Y-73.88
X173.46Y-76.42
X173.46Y-78.96
X173.46Y-81.5
X176.0Y-18.0
X176.0Y-20.54
X176.0Y-23.08
X176.0Y-25.62
X176.0Y-28.16
X176.0Y-30.7
X176.0Y-33.24
X176.0Y-35.78
X176.0Y-38.32
X176.0Y-40.86
X176.0Y-43.4
X176.0Y-45.94
X176.0Y-48.48
X176.0Y-51.02
X176.0Y-53.56
X176.0Y-56.1
X176.0Y-58.64
X176.0Y-61.18
X176.0Y-63.72
X176.0Y-66.26
X176.0Y-68.8
X176.0Y-71.34
X176.0Y-73.88
X176.0Y-76.42
X176.0Y-78.96
X176.0Y-81.5
T5
X104.0Y-160.0
X104.0Y-164.5
X109.46Y-47.62
X109.46Y-77.62
X109.46Y-107.62
X109.46Y-137.62
X110.5Y-160.0
X110.5Y-164.5
X114.54Y-47.62
X114.54Y-77.62
X114.54Y-107.62
X114.54Y-137.62
X126.0Y-160.0
X126.0Y-164.5
X132.5Y-160.0
X132.5Y-164.5
X148.0Y-160.0
X148.0Y-164.5
X154.5Y-160.0
X154.5Y-164.5
X170.0Y-160.0
X170.0Y-164.5
X176.5Y-160.0
X176.5Y-164.5
T6
X10.0Y-27.0
X10.0Y-32.0
X10.0Y-37.0
X10.0Y-42.0
X10.0Y-47.0
X10.0Y-52.0
X10.0Y-57.0
X10.0Y-62.0
X10.0Y-67.0
X10.0Y-72.0
X16.0Y-160.0
X21.0Y-160.0
X26.0Y-160.0
X31.0Y-160.0
X45.0Y-160.0
X50.0Y-160.0
X222.0Y-17.0
X222.0Y-22.0
X222.0Y-27.0
X222.0Y-32.0
X222.0Y-37.0
X222.0Y-42.0
X222.0Y-47.0
X222.0Y-52.0
T7
X171.0Y-113.0
X171.0Y-123.0
X225.0Y-113.0
X225.0Y-123.0
T8
X103.11Y-48.89
X103.11Y-78.89
X103.11Y-108.89
X103.11Y-138.89
X120.89Y-48.89
X120.89Y-78.89
X120.89Y-108.89
X120.89Y-138.89
T9
X172.0Y-101.0
X172.0Y-135.0
X224.0Y-101.0
X224.0Y-135.0
M30
